<svg width="42" height="42" viewBox="0 0 42 42" fill="none" xmlns="http://www.w3.org/2000/svg">
<path d="M21 0C9.42022 0 0 9.42022 0 21C0 32.5798 9.42022 42 21 42C32.5798 42 42 32.5798 42 21C42 9.42022 32.5798 0 21 0ZM27.4873 22.2373L18.7372 30.9872C18.5749 31.1499 18.3821 31.279 18.1697 31.367C17.9574 31.455 17.7298 31.5002 17.5 31.5C17.2701 31.5002 17.0425 31.455 16.8302 31.367C16.6179 31.279 16.425 31.1499 16.2627 30.9872C15.5785 30.303 15.5785 29.197 16.2627 28.5128L23.7755 21L16.2628 13.4873C15.5786 12.803 15.5786 11.697 16.2628 11.0128C16.947 10.3286 18.053 10.3286 18.7372 11.0128L27.4873 19.7628C28.1715 20.447 28.1715 21.553 27.4873 22.2373Z" fill="#005CFF"/>
</svg>
