<svg width="42" height="42" viewBox="0 0 42 42" fill="none" xmlns="http://www.w3.org/2000/svg">
<path d="M21 0C32.5798 0 42 9.42022 42 21C42 32.5798 32.5798 42 21 42C9.42022 42 0 32.5798 0 21C0 9.42022 9.42022 0 21 0ZM14.5127 22.2373L23.2628 30.9872C23.4251 31.1499 23.6179 31.279 23.8303 31.367C24.0426 31.455 24.2702 31.5002 24.5 31.5C24.7299 31.5002 24.9575 31.455 25.1698 31.367C25.3821 31.279 25.575 31.1499 25.7373 30.9872C26.4215 30.303 26.4215 29.197 25.7373 28.5128L18.2245 21L25.7372 13.4873C26.4214 12.803 26.4214 11.697 25.7372 11.0128C25.053 10.3286 23.947 10.3286 23.2628 11.0128L14.5127 19.7628C13.8285 20.447 13.8285 21.553 14.5127 22.2373Z" fill="#E3EDFF"/>
</svg>
