<svg xmlns="http://www.w3.org/2000/svg" width="73" height="73" viewBox="0 0 73 73" fill="none"><path d="M0.5 36.4617C0.5 16.5794 16.6178 0.46167 36.5 0.46167C56.3823 0.46167 72.5 16.5794 72.5 36.4617C72.5 56.3439 56.3823 72.4617 36.5 72.4617C16.6178 72.4617 0.5 56.3439 0.5 36.4617Z" fill="#003580"></path><path d="M41 40.6306C40.7348 40.6306 40.4804 40.736 40.2929 40.9235C40.1054 41.111 40 41.3654 40 41.6306C40 41.8958 40.1054 42.1502 40.2929 42.3377C40.4804 42.5253 40.7348 42.6306 41 42.6306H45C45.2652 42.6306 45.5196 42.5253 45.7071 42.3377C45.8946 42.1502 46 41.8958 46 41.6306C46 41.3654 45.8946 41.111 45.7071 40.9235C45.5196 40.736 45.2652 40.6306 45 40.6306H41ZM22 31.6306C22 30.3045 22.5268 29.0328 23.4645 28.0951C24.4021 27.1574 25.6739 26.6306 27 26.6306H45C46.3261 26.6306 47.5979 27.1574 48.5355 28.0951C49.4732 29.0328 50 30.3045 50 31.6306V41.6306C50 42.9567 49.4732 44.2285 48.5355 45.1661C47.5979 46.1038 46.3261 46.6306 45 46.6306H27C25.6739 46.6306 24.4021 46.1038 23.4645 45.1661C22.5268 44.2285 22 42.9567 22 41.6306V31.6306ZM48 32.6306V31.6306C48 30.835 47.6839 30.0719 47.1213 29.5093C46.5587 28.9467 45.7956 28.6306 45 28.6306H27C26.2044 28.6306 25.4413 28.9467 24.8787 29.5093C24.3161 30.0719 24 30.835 24 31.6306V32.6306H48ZM24 34.6306V41.6306C24 42.4263 24.3161 43.1893 24.8787 43.7519C25.4413 44.3145 26.2044 44.6306 27 44.6306H45C45.7956 44.6306 46.5587 44.3145 47.1213 43.7519C47.6839 43.1893 48 42.4263 48 41.6306V34.6306H24Z" fill="white"></path></svg>