<svg xmlns="http://www.w3.org/2000/svg" width="73" height="73" viewBox="0 0 73 73" fill="none"><path d="M0.5 36.4617C0.5 16.5794 16.6178 0.46167 36.5 0.46167C56.3823 0.46167 72.5 16.5794 72.5 36.4617C72.5 56.3439 56.3823 72.4617 36.5 72.4617C16.6178 72.4617 0.5 56.3439 0.5 36.4617Z" fill="#003580"></path><path d="M26.6667 26.0652C25.3667 26.1932 24.492 26.4826 23.8387 27.1359C22.6667 28.3066 22.6667 30.1932 22.6667 33.9639V39.2972C22.6667 43.0679 22.6667 44.9546 23.8387 46.1252C24.492 46.7786 25.3667 47.0679 26.6667 47.1959M45.3334 26.0652C46.6334 26.1932 47.508 26.4826 48.1614 27.1359C49.3334 28.3066 49.3334 30.1932 49.3334 33.9639V39.2972C49.3334 43.0679 49.3334 44.9546 48.1614 46.1252C47.508 46.7786 46.6334 47.0679 45.3334 47.1959M26.6667 31.2972C26.6667 27.5266 26.6667 25.6399 27.8387 24.4692C29.0094 23.2972 30.896 23.2972 34.6667 23.2972H37.3334C41.104 23.2972 42.9907 23.2972 44.1614 24.4692C45.3334 25.6399 45.3334 27.5266 45.3334 31.2972V41.9639C45.3334 45.7346 45.3334 47.6212 44.1614 48.7919C42.9907 49.9639 41.104 49.9639 37.3334 49.9639H34.6667C30.896 49.9639 29.0094 49.9639 27.8387 48.7919C26.6667 47.6212 26.6667 45.7346 26.6667 41.9639V31.2972Z" stroke="white" stroke-width="1.5"></path><path d="M32 37.9639H40M32 32.6306H40M32 43.2973H36" stroke="white" stroke-width="1.5" stroke-linecap="round"></path></svg>