<svg xmlns="http://www.w3.org/2000/svg" width="10" height="14" viewBox="0 0 10 14" fill="none"><path d="M5.22224 13.7492C4.50224 13.7492 3.82424 13.6172 3.18824 13.3532C2.56424 13.0892 2.02424 12.7172 1.56824 12.2372C1.12424 11.7572 0.806242 11.1932 0.614242 10.5452L2.41424 9.8612C2.65424 10.4972 3.02024 10.9892 3.51224 11.3372C4.00424 11.6852 4.57424 11.8592 5.22224 11.8592C5.75024 11.8592 6.20624 11.7572 6.59024 11.5532C6.98624 11.3492 7.29224 11.0612 7.50824 10.6892C7.73624 10.3172 7.85024 9.8672 7.85024 9.3392C7.85024 8.8232 7.73624 8.3792 7.50824 8.0072C7.29224 7.6352 6.98624 7.3532 6.59024 7.1612C6.20624 6.9692 5.75024 6.8732 5.22224 6.8732C5.00624 6.8732 4.78424 6.8912 4.55624 6.9272C4.34024 6.9632 4.14824 7.0112 3.98024 7.0712L3.51224 6.0812L7.04024 1.9232H1.33424V0.123202H9.41624V1.8332L5.96024 5.9732L5.90624 5.2892C6.71024 5.3012 7.41824 5.4812 8.03024 5.8292C8.64224 6.1652 9.11624 6.6332 9.45224 7.2332C9.80024 7.8212 9.97424 8.5052 9.97424 9.2852C9.97424 10.1252 9.77024 10.8872 9.36224 11.5712C8.95424 12.2432 8.39024 12.7772 7.67024 13.1732C6.96224 13.5572 6.14624 13.7492 5.22224 13.7492Z" fill="white"></path></svg>