<svg xmlns="http://www.w3.org/2000/svg" width="10" height="15" viewBox="0 0 10 15" fill="none"><path d="M0.854102 14.0332V12.5032L4.5261 8.5792C5.2461 7.8112 5.8101 7.1932 6.2181 6.7252C6.6381 6.2452 6.9381 5.8252 7.1181 5.4652C7.3101 5.1052 7.4061 4.7272 7.4061 4.3312C7.4061 3.6832 7.2081 3.1852 6.8121 2.8372C6.4161 2.4772 5.9061 2.2972 5.2821 2.2972C4.6341 2.2972 4.0761 2.4832 3.6081 2.8552C3.1401 3.2152 2.8161 3.7432 2.6361 4.4392L0.764102 3.8992C0.908102 3.1912 1.1961 2.5792 1.6281 2.0632C2.0601 1.5352 2.5881 1.1272 3.2121 0.839202C3.8481 0.551203 4.5321 0.407203 5.2641 0.407203C6.1161 0.407203 6.8601 0.569203 7.4961 0.893203C8.1321 1.2052 8.6241 1.6432 8.9721 2.2072C9.3321 2.7712 9.5121 3.4252 9.5121 4.1692C9.5121 4.6612 9.4161 5.1412 9.2241 5.6092C9.0441 6.0652 8.7621 6.5512 8.3781 7.0672C7.9941 7.5712 7.5021 8.1412 6.9021 8.7772L3.6621 12.2332H9.7641V14.0332H0.854102Z" fill="white"></path></svg>