<svg xmlns="http://www.w3.org/2000/svg" width="10" height="14" viewBox="0 0 10 14" fill="none"><path d="M5.29509 13.7492C4.58709 13.7492 3.92109 13.6232 3.29709 13.3712C2.67309 13.1072 2.13309 12.7412 1.67709 12.2732C1.22109 11.8052 0.897086 11.2412 0.705086 10.5812L2.48709 9.8972C2.71509 10.5332 3.08709 11.0192 3.60309 11.3552C4.11909 11.6912 4.68309 11.8592 5.29509 11.8592C5.79909 11.8592 6.24309 11.7452 6.62709 11.5172C7.01109 11.2892 7.31109 10.9772 7.52709 10.5812C7.75509 10.1852 7.86909 9.7352 7.86909 9.2312C7.86909 8.7152 7.75509 8.2652 7.52709 7.8812C7.31109 7.4852 7.01109 7.1792 6.62709 6.9632C6.24309 6.7352 5.79909 6.6212 5.29509 6.6212C4.79109 6.6212 4.32909 6.7352 3.90909 6.9632C3.48909 7.1912 3.18309 7.4972 2.99109 7.8812L1.28109 7.5032L2.32509 0.123202H9.47109V1.9232H3.15309L3.96309 1.0412L3.18909 6.6932L2.52309 6.2432C2.88309 5.7392 3.32109 5.3732 3.83709 5.1452C4.35309 4.9172 4.94109 4.8032 5.60109 4.8032C6.47709 4.8032 7.23909 5.0012 7.88709 5.3972C8.54709 5.7812 9.05709 6.3092 9.41709 6.9812C9.78909 7.6412 9.97509 8.3912 9.97509 9.2312C9.97509 10.0832 9.77109 10.8512 9.36309 11.5352C8.95509 12.2192 8.39709 12.7592 7.68909 13.1552C6.99309 13.5512 6.19509 13.7492 5.29509 13.7492Z" fill="white"></path></svg>