<svg xmlns="http://www.w3.org/2000/svg" width="40" height="40" viewBox="0 0 40 40" fill="none"><rect width="40" height="40" rx="4" fill="#3D81C2"></rect><path fill-rule="evenodd" clip-rule="evenodd" d="M18.6459 9.33557H20.8125C23.8762 9.33557 25.4091 9.33557 26.3603 10.2878C27.3125 11.239 27.3125 12.7719 27.3125 15.8356V24.5022C27.3125 27.5659 27.3125 29.0988 26.3603 30.05C25.4091 31.0022 23.8762 31.0022 20.8125 31.0022H18.6459C15.5822 31.0022 14.0493 31.0022 13.0981 30.05C12.1459 29.0988 12.1459 27.5659 12.1459 24.5022V15.8356C12.1459 12.7719 12.1459 11.239 13.0981 10.2878C14.0493 9.33557 15.5822 9.33557 18.6459 9.33557ZM15.6667 21.2522C15.6667 21.0367 15.7523 20.8301 15.9047 20.6777C16.0571 20.5253 16.2637 20.4397 16.4792 20.4397H22.9792C23.1947 20.4397 23.4014 20.5253 23.5537 20.6777C23.7061 20.8301 23.7917 21.0367 23.7917 21.2522C23.7917 21.4677 23.7061 21.6744 23.5537 21.8268C23.4014 21.9791 23.1947 22.0647 22.9792 22.0647H16.4792C16.2637 22.0647 16.0571 21.9791 15.9047 21.8268C15.7523 21.6744 15.6667 21.4677 15.6667 21.2522ZM15.6667 16.9189C15.6667 16.7034 15.7523 16.4968 15.9047 16.3444C16.0571 16.192 16.2637 16.1064 16.4792 16.1064H22.9792C23.1947 16.1064 23.4014 16.192 23.5537 16.3444C23.7061 16.4968 23.7917 16.7034 23.7917 16.9189C23.7917 17.1344 23.7061 17.3411 23.5537 17.4934C23.4014 17.6458 23.1947 17.7314 22.9792 17.7314H16.4792C16.2637 17.7314 16.0571 17.6458 15.9047 17.4934C15.7523 17.3411 15.6667 17.1344 15.6667 16.9189ZM15.6667 25.5856C15.6667 25.3701 15.7523 25.1634 15.9047 25.011C16.0571 24.8587 16.2637 24.7731 16.4792 24.7731H19.7292C19.9447 24.7731 20.1514 24.8587 20.3037 25.011C20.4561 25.1634 20.5417 25.3701 20.5417 25.5856C20.5417 25.8011 20.4561 26.0077 20.3037 26.1601C20.1514 26.3125 19.9447 26.3981 19.7292 26.3981H16.4792C16.2637 26.3981 16.0571 26.3125 15.9047 26.1601C15.7523 26.0077 15.6667 25.8011 15.6667 25.5856Z" fill="white"></path></svg>